<svg xmlns="http://www.w3.org/2000/svg">
  <symbol id="menu" viewBox="0 0 24 24"><path d="M4 6h16M4 12h16M4 18h16"/></symbol>
  <symbol id="x" viewBox="0 0 24 24"><path d="m18 6-12 12M6 6l12 12"/></symbol>
  <symbol id="lock" viewBox="0 0 24 24"><rect width="16" height="12" x="4" y="10" rx="2"/><path d="M8 10V7a4 4 0 0 1 8 0v3"/></symbol>
  <symbol id="user" viewBox="0 0 24 24"><circle cx="12" cy="8" r="4"/><path d="M4 21a8 8 0 0 1 16 0"/></symbol>
  <symbol id="map-pin" viewBox="0 0 24 24"><path d="M20 10c0 5-8 12-8 12S4 15 4 10a8 8 0 1 1 16 0Z"/><circle cx="12" cy="10" r="2"/></symbol>
  <symbol id="landmark" viewBox="0 0 24 24"><path d="m3 10 9-6 9 6M5 10v8M9 10v8M15 10v8M19 10v8M3 21h18M2 18h20"/></symbol>
  <symbol id="target" viewBox="0 0 24 24"><circle cx="12" cy="12" r="9"/><circle cx="12" cy="12" r="5"/><circle cx="12" cy="12" r="1"/></symbol>
  <symbol id="shield-check" viewBox="0 0 24 24"><path d="M20 13c0 5-3.5 7.5-8 9-4.5-1.5-8-4-8-9V5l8-3 8 3v8Z"/><path d="m9 12 2 2 4-4"/></symbol>
  <symbol id="check" viewBox="0 0 24 24"><path d="m5 12 4 4L19 6"/></symbol>
  <symbol id="calendar-days" viewBox="0 0 24 24"><rect width="18" height="18" x="3" y="4" rx="2"/><path d="M16 2v4M8 2v4M3 10h18M8 14h.01M12 14h.01M16 14h.01M8 18h.01M12 18h.01"/></symbol>
  <symbol id="chevron-right" viewBox="0 0 24 24"><path d="m9 18 6-6-6-6"/></symbol>
  <symbol id="clock" viewBox="0 0 24 24"><circle cx="12" cy="12" r="9"/><path d="M12 7v5l3 2"/></symbol>
  <symbol id="info" viewBox="0 0 24 24"><circle cx="12" cy="12" r="9"/><path d="M12 11v5M12 8h.01"/></symbol>
  <symbol id="upload-cloud" viewBox="0 0 24 24"><path d="M16 16l-4-4-4 4M12 12v9M20.4 17.5A5 5 0 0 0 18 8.2 7 7 0 0 0 4.3 10.8 4.5 4.5 0 0 0 5.5 19H7"/></symbol>
  <symbol id="arrow-left" viewBox="0 0 24 24"><path d="m15 18-6-6 6-6"/></symbol>
  <symbol id="arrow-right" viewBox="0 0 24 24"><path d="m9 18 6-6-6-6"/></symbol>
  <symbol id="check-circle" viewBox="0 0 24 24"><circle cx="12" cy="12" r="9"/><path d="m8 12 3 3 5-6"/></symbol>
</svg>
